<?xml version="1.0" encoding="utf-8"?>
<!-- Generator: Adobe Illustrator 23.0.6, SVG Export Plug-In . SVG Version: 6.00 Build 0)  -->
<svg version="1.1" id="Layer_1" xmlns="http://www.w3.org/2000/svg" xmlns:xlink="http://www.w3.org/1999/xlink" x="0px" y="0px"
	 viewBox="0 0 680.4 680.3" style="enable-background:new 0 0 680.4 680.3;" xml:space="preserve">
<g>
	<polygon points="592.3,251.9 592.3,318.4 613.9,340 580.6,373.3 580.6,373.3 533.6,420.3 430.6,523.3 430.6,523.3 497.1,523.3 
		533.6,486.9 533.6,487 580.6,439.9 580.6,439.8 680.4,340 	"/>
	<polygon points="76.1,330.5 76.1,330.5 99.5,307.1 146.5,260 247,159.6 180.5,159.6 174.3,165.7 174.3,165.7 146.5,193.5 
		99.5,240.6 0,340 87.8,427.9 87.8,361.4 66.5,340 	"/>
	<polygon points="340.2,66.3 374.7,100.9 374.6,100.9 421.7,147.9 521.9,248.2 521.9,248.1 521.9,181.5 513.8,173.5 513.7,173.6 
		488,147.9 440.9,100.9 340,0 250.8,89.2 317.3,89.2 	"/>
	<polygon points="340.2,613.7 308.5,582 308.5,582 261.5,535 158.2,431.7 158.2,431.7 158.2,498.2 194.9,535 242,582 340.2,680.3 
		426.8,593.7 360.3,593.7 	"/>
	<polygon points="146.5,147.9 155.9,147.9 192.1,147.9 258.6,147.9 405.2,147.9 358.1,100.9 305.7,100.9 239.2,100.9 101.5,100.9 
		99.5,100.9 99.5,224.1 146.5,177 	"/>
	<polygon points="146.5,535 146.5,533.4 146.5,486.6 146.5,420.1 146.5,276.5 99.5,323.6 99.5,373 99.5,439.5 99.5,578.8 99.5,582 
		225.5,582 178.4,535 	"/>
	<polygon points="521.9,147.9 533.6,147.9 533.6,193.2 533.6,259.7 533.6,403.8 580.6,356.8 580.6,306.8 580.6,240.2 580.6,100.9 
		457.4,100.9 504.5,147.9 	"/>
	<polygon points="533.6,535 528,535 485.5,535 419,535 278,535 325,582 356.9,582 371.9,582 438.5,582 580.6,582 580.6,456.4 
		533.6,503.4 	"/>
</g>
</svg>
